# xmcd
#
# Track frame offsets: 
#        150
#        14900
#        32765
#        51660
#        68445
#        81325
#        94215
#        110432
#        124575
#        142395
#        155065
#        165610
#
# Disc length: 2480 seconds
#
# Revision: 2
# Processed by: cddbd v1.5.2PL0 Copyright (c) Steve Scherf et al.
# Submitted via: ExactAudioCopy v0.99pb4
#
DISCID=af09ae0c
DTITLE=Nemesis - Temple Of Boom
DYEAR=1993
DGENRE=
TTITLE0=Temple Of Boom
TTITLE1=Nemesis On The Premises
TTITLE2=Deep Up In It
TTITLE3=Cantfigureitout
TTITLE4=The Big, The Bad, The Bass
TTITLE5=Get Ya Flow On
TTITLE6=Str8 Jackin'
TTITLE7=Hard From Birth
TTITLE8=Parkin' Lot On Dixon
TTITLE9=Go Ron C
TTITLE10=Brand New Team
TTITLE11=Cloud 7
EXTD=
EXTT0=
EXTT1=
EXTT2=
EXTT3=
EXTT4=
EXTT5=
EXTT6=
EXTT7=
EXTT8=
EXTT9=
EXTT10=
EXTT11=
PLAYORDER=
